<svg xmlns="http://www.w3.org/2000/svg" viewBox="0 0 641.89 384.6"><defs><style>.cls-1{fill:#f4f4f4;}.cls-2{fill:#6c8d4d;}.cls-14,.cls-19,.cls-20,.cls-3,.cls-6{fill:none;}.cls-3{stroke:#456029;stroke-width:0.75px;}.cls-14,.cls-19,.cls-3,.cls-6{stroke-miterlimit:10;}.cls-4{fill:#fce5c8;}.cls-5{fill:#fff1e1;}.cls-14,.cls-20,.cls-6{stroke:#1c1b1a;}.cls-20,.cls-6{stroke-width:0.5px;}.cls-7{fill:#5e2419;}.cls-8{fill:#6c2f1f;}.cls-9{fill:#e59a38;}.cls-10{fill:#ffc064;}.cls-11{fill:#fca338;}.cls-12{fill:#c1781f;}.cls-13{fill:#d18430;}.cls-14{stroke-width:0.43px;}.cls-15{fill:#456029;}.cls-16{fill:#939393;}.cls-17{fill:#595959;}.cls-18{fill:#f6af3d;}.cls-19{stroke:#bc7d22;stroke-width:0.25px;}.cls-20{stroke-linecap:round;stroke-linejoin:round;}</style></defs><g id="OBJECTS"><path class="cls-1" d="M626.42,325.78a204.11,204.11,0,0,1-30.67,107.46H180.32a204.11,204.11,0,0,1-30.67-107.46C149.65,204.9,256.38,106.9,388,106.9S626.42,204.9,626.42,325.78Z" transform="translate(-67.09 -49.87)"/><ellipse class="cls-2" cx="95.59" cy="115.73" rx="9.77" ry="17.94"/><line class="cls-3" x1="95.99" y1="97.8" x2="95.99" y2="359.82"/><path class="cls-2" d="M217.3,214.15c-8.57,2.8-16.64,2.18-18-1.38s4.45-8.72,13-11.52,16.64-2.19,18,1.37S225.87,211.35,217.3,214.15Z" transform="translate(-67.09 -49.87)"/><path class="cls-3" d="M163.23,247.55c11.34-21,37-41.51,67.08-44.93" transform="translate(-67.09 -49.87)"/><path class="cls-2" d="M202.64,194.79c-.95,6.63-4.37,11.69-7.63,11.29s-5.16-6.09-4.21-12.72,4.37-11.69,7.64-11.29S203.59,188.16,202.64,194.79Z" transform="translate(-67.09 -49.87)"/><path class="cls-3" d="M193.6,215.88c-.56-7.6,3-26.32,5-33.69" transform="translate(-67.09 -49.87)"/><ellipse class="cls-2" cx="111.85" cy="207.7" rx="6.91" ry="16.33" transform="translate(-186.91 202.31) rotate(-72.56)"/><path class="cls-3" d="M163.42,247.55c-11.34-21-37-41.51-67.08-44.93" transform="translate(-67.09 -49.87)"/><path class="cls-2" d="M124,194.79c.95,6.63,4.37,11.69,7.63,11.29s5.16-6.09,4.21-12.72-4.37-11.69-7.64-11.29S123.06,188.16,124,194.79Z" transform="translate(-67.09 -49.87)"/><path class="cls-3" d="M133.05,215.88c.56-7.6-2.94-26.32-5-33.69" transform="translate(-67.09 -49.87)"/><path class="cls-2" d="M114.66,277.43c9.63-3.67,16-9.9,14.15-13.9s-11.08-4.27-20.7-.59-16,9.89-14.16,13.89S105,281.1,114.66,277.43Z" transform="translate(-67.09 -49.87)"/><path class="cls-3" d="M163.07,257.47A173.71,173.71,0,0,0,94,276.83" transform="translate(-67.09 -49.87)"/><ellipse class="cls-2" cx="111.62" cy="245.54" rx="10.6" ry="25.2" transform="translate(-221.03 242.85) rotate(-75.63)"/><path class="cls-3" d="M146.65,259.35c-16.47-11.52-38.72-19-59.36-20.3" transform="translate(-67.09 -49.87)"/><ellipse class="cls-2" cx="214.59" cy="270.18" rx="7.93" ry="18.66" transform="translate(-180 328.89) rotate(-69.88)"/><path class="cls-3" d="M162.9,257.47A173.62,173.62,0,0,1,232,276.83" transform="translate(-67.09 -49.87)"/><ellipse class="cls-2" cx="214.35" cy="245.54" rx="25.2" ry="10.6" transform="translate(-121.33 11.02) rotate(-14.37)"/><path class="cls-3" d="M179.32,259.35c16.48-11.52,38.72-19,59.37-20.3" transform="translate(-67.09 -49.87)"/><path class="cls-2" d="M192.49,240.6c-6.58,9-15.49,14-19.91,11.28s-2.67-12.22,3.91-21.18,15.49-14,19.91-11.28S199.07,231.64,192.49,240.6Z" transform="translate(-67.09 -49.87)"/><path class="cls-3" d="M163.11,287.47C163,266,180.35,235,196.4,219.42" transform="translate(-67.09 -49.87)"/><path class="cls-2" d="M133.45,289.83c7.05,4.85,15.21,5.8,18.21,2.11s-.28-10.6-7.33-15.45-15.2-5.79-18.21-2.11S126.4,285,133.45,289.83Z" transform="translate(-67.09 -49.87)"/><path class="cls-3" d="M163.27,301.73c-11.25-11.46-25.21-21.63-37-27.23" transform="translate(-67.09 -49.87)"/><path class="cls-2" d="M175.92,200.16c.62,5.19-1,9.59-3.51,9.85s-5.12-3.74-5.74-8.92,1-9.59,3.52-9.85S175.31,195,175.92,200.16Z" transform="translate(-67.09 -49.87)"/><path class="cls-3" d="M181,225.83c-7.31-7.86-11.42-24.27-10.78-34.59" transform="translate(-67.09 -49.87)"/><path class="cls-2" d="M188.62,290.69c-5.32,1.8-10.36,1.49-11.26-.7s2.69-5.4,8-7.2,10.37-1.49,11.26.69S194,288.89,188.62,290.69Z" transform="translate(-67.09 -49.87)"/><path class="cls-3" d="M162.76,301.37c6.5-8.34,22.81-15.94,33.87-17.89" transform="translate(-67.09 -49.87)"/><path class="cls-2" d="M140.66,200.29c-4.46,5.92-5.71,12.22-2.8,14.08s8.88-1.44,13.34-7.36,5.71-12.22,2.8-14.08S145.11,194.37,140.66,200.29Z" transform="translate(-67.09 -49.87)"/><path class="cls-3" d="M133.48,216.29c8.45-6.42,17-16.54,20.52-23.36" transform="translate(-67.09 -49.87)"/><path class="cls-2" d="M134,241.61c8,3.61,15.85,3.85,17.63.54s-3.24-8.92-11.2-12.52-15.86-3.85-17.63-.54S126,238,134,241.61Z" transform="translate(-67.09 -49.87)"/><path class="cls-3" d="M163.39,247.47c-8-5.67-31-15.07-40.59-18.13" transform="translate(-67.09 -49.87)"/><path class="cls-4" d="M215.85,317.13l-10.4,101.94c-.89,8.73-8.87,15.41-18.43,15.41H137.4c-9.66,0-17.7-6.83-18.45-15.67h0l-8.64-101.68Z" transform="translate(-67.09 -49.87)"/><path class="cls-5" d="M186.16,350.53c0,35.59-29.48,64.82-67.21,68.28l-8.64-101.68h66.41A64.1,64.1,0,0,1,186.16,350.53Z" transform="translate(-67.09 -49.87)"/><line class="cls-6" x1="48.2" y1="325.93" x2="142.78" y2="325.93"/><line class="cls-6" x1="48.2" y1="343.56" x2="142.78" y2="343.56"/><line class="cls-6" x1="641.89" y1="383.95" y2="383.95"/><line class="cls-6" x1="641.89" y1="0.25" y2="0.25"/><polygon class="cls-7" points="265.76 304.05 247.8 383.94 240.6 383.94 250.58 304.05 265.76 304.05"/><polygon class="cls-8" points="261.39 304.05 243.43 383.94 240.6 383.94 250.58 304.05 261.39 304.05"/><polygon class="cls-7" points="375.45 304.05 393.41 383.94 400.62 383.94 390.64 304.05 375.45 304.05"/><polygon class="cls-8" points="379.82 304.05 397.78 383.94 400.62 383.94 390.64 304.05 379.82 304.05"/><path class="cls-9" d="M493.76,261.83l-16.95,71.46c-3.33,14.07-16.9,24.12-32.58,24.12H331.83c-15.68,0-29.23-10.05-32.56-24.12l-2.16-9.05-14.79-62.41c13.73,0,25.61-8.76,28.56-21.08l6.17-27c1.73-7.66,9.1-13.16,17.62-13.16H441.41a8.7,8.7,0,0,1,1,0c8.08.4,14.93,5.77,16.6,13.12l6.15,27C468.13,253.07,480,261.83,493.76,261.83Z" transform="translate(-67.09 -49.87)"/><path class="cls-10" d="M445.78,225.84c0,57.26-50.55,103.69-112.93,103.69a122.65,122.65,0,0,1-35.74-5.29l-14.79-62.41c13.73,0,25.61-8.76,28.56-21.08l6.17-27c1.73-7.66,9.1-13.16,17.62-13.16H441.41a8.7,8.7,0,0,1,1,0A95.42,95.42,0,0,1,445.78,225.84Z" transform="translate(-67.09 -49.87)"/><path class="cls-11" d="M307.74,284.77c-3.93-12.55-15.72-21.5-29.6-22.94a17.93,17.93,0,0,0-2.76-.23l-.52,0-.64,0h0v.06c-8.56.54-15.34,7-15.42,15-.07,7.21,5.67,13.65,13.37,15.07a18,18,0,0,0,6.46,0l6.23,42.61c3.19,13.44,16.14,23,31.12,23h0c7.28,0,12.53-6.4,10.52-12.83Z" transform="translate(-67.09 -49.87)"/><path class="cls-11" d="M468.33,284.77c3.93-12.55,15.72-21.5,29.6-22.94a17.82,17.82,0,0,1,2.76-.23l.52,0,.64,0h0v.06c8.56.54,15.34,7,15.42,15,.07,7.21-5.67,13.65-13.37,15.07a18,18,0,0,1-6.46,0l-6.23,42.61c-3.19,13.44-16.14,23-31.13,23h0c-7.28,0-12.53-6.4-10.51-12.83Z" transform="translate(-67.09 -49.87)"/><path class="cls-10" d="M461,357.4H315.08c-8.7,0-15.75-6.47-15.75-14.46h0c0-8,7.05-14.47,15.75-14.47H461c8.7,0,15.75,6.48,15.75,14.47h0C476.74,350.93,469.69,357.4,461,357.4Z" transform="translate(-67.09 -49.87)"/><path class="cls-12" d="M465,316.65c0,6.49-6,11.75-13.33,11.75H324.41A14.21,14.21,0,0,1,315,325a10.79,10.79,0,0,1,0-16.62l12.09-10.66a29.34,29.34,0,0,1,19.36-7.08h83.2A29.38,29.38,0,0,1,449,297.67l12.09,10.66A11.17,11.17,0,0,1,465,316.65Z" transform="translate(-67.09 -49.87)"/><path class="cls-13" d="M421,290.59c-17.38,20-42.61,33.87-71.4,37.81H324.41A14.21,14.21,0,0,1,315,325a10.79,10.79,0,0,1,0-16.62l12.09-10.66a29.34,29.34,0,0,1,19.36-7.08Z" transform="translate(-67.09 -49.87)"/><polygon class="cls-7" points="579.29 238.41 538.69 238.41 539.75 229.45 578 229.45 579.29 238.41"/><polygon class="cls-8" points="539.75 229.45 538.69 238.41 498.12 238.41 499.15 229.45 539.75 229.45"/><polygon class="cls-7" points="584.85 286.42 532.99 286.42 534.05 277.46 583.57 277.46 584.85 286.42"/><polygon class="cls-8" points="534.05 277.46 532.99 286.42 492.43 286.42 493.45 277.46 534.05 277.46"/><line class="cls-14" x1="539.75" y1="229.45" x2="521.46" y2="383.95"/><line class="cls-14" x1="499.14" y1="229.44" x2="480.84" y2="383.95"/><line class="cls-14" x1="578" y1="229.44" x2="596.29" y2="383.95"/><path class="cls-15" d="M621.85,211c-4.47,12-10.63,20.88-13.75,19.9-1.65-.52-2.12-3.7-1.54-8.35a70.53,70.53,0,0,1,4-15.11c4.28-11.46,10.1-20.11,13.33-20a1.25,1.25,0,0,1,.43.07C627.41,188.53,626.32,199,621.85,211Z" transform="translate(-67.09 -49.87)"/><path class="cls-2" d="M619.89,202.6c-4.29,11.47-10.11,20.12-13.33,20a70.53,70.53,0,0,1,4-15.11c4.28-11.46,10.1-20.11,13.33-20A70.16,70.16,0,0,1,619.89,202.6Z" transform="translate(-67.09 -49.87)"/><path class="cls-15" d="M588.92,211c4.47,12,10.63,20.88,13.74,19.9,1.65-.52,2.12-3.7,1.55-8.35a71.22,71.22,0,0,0-4-15.11c-4.28-11.46-10.1-20.11-13.32-20a1.18,1.18,0,0,0-.43.07C583.35,188.53,584.44,199,588.92,211Z" transform="translate(-67.09 -49.87)"/><path class="cls-2" d="M590.87,202.6c4.29,11.47,10.11,20.12,13.34,20a71.22,71.22,0,0,0-4-15.11c-4.28-11.46-10.1-20.11-13.32-20A70.07,70.07,0,0,0,590.87,202.6Z" transform="translate(-67.09 -49.87)"/><path class="cls-15" d="M614.7,214.19c0,24.82-3.83,45-8.55,45-2.5,0-4.73-5.64-6.31-14.6a186.24,186.24,0,0,1-2.24-30.36c0-23.75,3.51-43.19,7.93-44.84a1.41,1.41,0,0,1,.62-.13C610.87,169.22,614.7,189.36,614.7,214.19Z" transform="translate(-67.09 -49.87)"/><path class="cls-2" d="M607.79,199.72c0,23.78-3.5,43.23-7.95,44.83a186.24,186.24,0,0,1-2.24-30.36c0-23.75,3.51-43.19,7.93-44.84A182.74,182.74,0,0,1,607.79,199.72Z" transform="translate(-67.09 -49.87)"/><path class="cls-15" d="M628.57,228.57c-8.68,16.25-19.17,27.89-23.41,26-2.24-1-2.27-5.61-.55-12.11a103.16,103.16,0,0,1,8.62-20.79c8.31-15.55,18.27-26.87,22.82-26.16a1.68,1.68,0,0,1,.59.17C640.88,197.57,637.27,212.3,628.57,228.57Z" transform="translate(-67.09 -49.87)"/><path class="cls-2" d="M627.44,216.3c-8.32,15.57-18.28,26.89-22.83,26.14a103.16,103.16,0,0,1,8.62-20.79c8.31-15.55,18.27-26.87,22.82-26.16A102.25,102.25,0,0,1,627.44,216.3Z" transform="translate(-67.09 -49.87)"/><path class="cls-15" d="M597.08,222.57c6.37,17.14,7.92,32.17,3.46,33.58-2.37.74-5.93-2.49-9.72-8.21a104.6,104.6,0,0,1-9.92-20.29c-6.09-16.4-7.77-30.87-4-33.32a2,2,0,0,1,.55-.27C581.91,192.66,590.7,205.43,597.08,222.57Z" transform="translate(-67.09 -49.87)"/><path class="cls-2" d="M586.83,214.63c6.1,16.42,7.78,30.88,4,33.31a104.6,104.6,0,0,1-9.92-20.29c-6.09-16.4-7.77-30.87-4-33.32A103,103,0,0,1,586.83,214.63Z" transform="translate(-67.09 -49.87)"/><path class="cls-4" d="M638.13,241.68v12.13c0,14.08-12.42,25.51-27.77,25.51h-8.21a28.44,28.44,0,0,1-23-11.21,23.88,23.88,0,0,1-4.79-14.3V241.68Z" transform="translate(-67.09 -49.87)"/><path class="cls-5" d="M620.85,241.68v1.46c0,14.08-12.43,25.51-27.78,25.51h-8.22a30.41,30.41,0,0,1-5.69-.54,23.88,23.88,0,0,1-4.79-14.3V241.68Z" transform="translate(-67.09 -49.87)"/><line class="cls-14" x1="571.05" y1="204.38" x2="507.28" y2="204.38"/><line class="cls-6" x1="320.95" y1="0.25" x2="320.95" y2="73.25"/><rect class="cls-16" x="315.78" y="78.05" width="10.33" height="1.67"/><rect class="cls-17" x="317.04" y="75.82" width="7.82" height="2.23"/><rect class="cls-16" x="318.25" y="72.94" width="5.4" height="2.89"/><path class="cls-18" d="M396.26,140.94c0,4.18-3.67,7.57-8.22,7.57s-8.22-3.37-8.24-7.53a8.58,8.58,0,0,0,5.53,2c4.55,0,8.24-3.39,8.24-7.55A7.15,7.15,0,0,1,396.26,140.94Z" transform="translate(-67.09 -49.87)"/><path class="cls-10" d="M393.57,135.39c0,4.16-3.69,7.55-8.24,7.55a8.58,8.58,0,0,1-5.53-2v0a7.45,7.45,0,0,1,4-6.45V129.6h8.48v4.89A7.73,7.73,0,0,1,393.57,135.39Z" transform="translate(-67.09 -49.87)"/><path class="cls-19" d="M389,129.6c0,.55-2,.55-2,1.1s2,.56,2,1.11-2,.56-2,1.11,2,.56,2,1.11-2,.55-2,1.11,2,.55,2,1.11-2,.55-2,1.11,2,.56,2,1.12-2,.55-2,1.11" transform="translate(-67.09 -49.87)"/><polygon class="cls-20" points="346.56 100.6 295.33 100.6 314.57 49.79 327.32 49.79 346.56 100.6"/><polygon class="cls-20" points="346.56 100.6 295.33 100.6 314.57 115.1 327.32 115.1 346.56 100.6"/><polyline class="cls-20" points="320.95 49.79 307.86 100.6 314.57 115.1"/><polyline class="cls-20" points="320.95 49.79 334.03 100.6 327.32 115.1"/><rect class="cls-6" x="393.37" y="56.91" width="89.67" height="82.34"/><rect class="cls-6" x="407.72" y="70.08" width="60.97" height="55.99"/><path class="cls-4" d="M510.28,156.81c0,6.86-6.06,12.41-13.52,12.41s-13.51-5.55-13.51-12.41,6.05-12.41,13.51-12.41S510.28,150,510.28,156.81Z" transform="translate(-67.09 -49.87)"/><rect class="cls-10" x="429.67" y="80.28" width="30" height="27.55"/><rect class="cls-6" x="158.85" y="56.91" width="89.67" height="82.34"/><path class="cls-4" d="M264.84,120a17,17,0,0,1,1,5.75c0,10.11-8.93,18.32-19.95,18.32a21.38,21.38,0,0,1-5.6-.74V120Z" transform="translate(-67.09 -49.87)"/><path class="cls-10" d="M276.51,176a16.92,16.92,0,0,1-.8-5.15c0-10.11,8.93-18.31,20-18.31a21.38,21.38,0,0,1,5.6.73V176Z" transform="translate(-67.09 -49.87)"/><rect class="cls-6" x="173.2" y="70.08" width="60.97" height="55.99"/></g></svg>