<svg width="147" height="124" viewBox="0 0 147 124" fill="none" xmlns="http://www.w3.org/2000/svg">
    <g clip-path="url(#clip0_2510_6621)">
        <path fill-rule="evenodd" clip-rule="evenodd"
            d="M146.993 9.52507C146.993 14.7856 142.743 19.0501 137.499 19.0501H37.1131C27.103 19.0501 18.9881 27.1915 18.9881 37.2344V63.718V114.193C18.9881 119.453 14.7375 123.718 9.49404 123.718C4.25061 123.718 0 119.453 0 114.193V37.2344C0 16.6704 16.6161 0 37.1131 0L137.499 1.99676e-06C142.743 1.99676e-06 146.993 4.26452 146.993 9.52507Z"
            fill="#E3964A" />
        <path fill-rule="evenodd" clip-rule="evenodd"
            d="M43.6034 56C43.6034 61.2606 40.8496 64 35.6062 64H18.9873V48.5H34.6046C39.848 48.5 43.6034 50.7395 43.6034 56Z"
            fill="#E3964A" />
    </g>
    <defs>
        <clipPath id="clip0_2510_6621">
            <rect width="147" height="124" fill="white" />
        </clipPath>
    </defs>
</svg>
    